<?xml version="1.0" encoding="iso-8859-1"?>
<!-- Generator: Adobe Illustrator 18.0.0, SVG Export Plug-In . SVG Version: 6.00 Build 0)  -->
<!DOCTYPE svg PUBLIC "-//W3C//DTD SVG 1.1//EN" "http://www.w3.org/Graphics/SVG/1.1/DTD/svg11.dtd">
<svg version="1.1" id="Capa_1" xmlns="http://www.w3.org/2000/svg" xmlns:xlink="http://www.w3.org/1999/xlink" x="0px" y="0px"
	 viewBox="0 0 209.333 209.333" style="enable-background:new 0 0 209.333 209.333;" xml:space="preserve">
<path d="M165.766,195.725c-35.375-16.164-59.835-50.859-59.835-91.058c0-40.197,24.458-74.89,59.829-91.055
	c5.525-2.525,4.525-10.616-1.442-11.755c-7.003-1.336-14.254-1.974-21.677-1.839C114.937,0.524,89.84,11.923,71.389,30.044
	c3.394,2.874,5.555,7.16,5.555,11.956c0,8.653-7.014,15.667-15.667,15.667c-3.227,0-6.225-0.978-8.717-2.65
	c-8.195,15.088-12.794,32.365-12.624,50.644c0.533,57.348,47.188,103.673,104.662,103.673c6.737,0,13.325-0.637,19.708-1.854
	C170.281,206.339,171.3,198.253,165.766,195.725z M87.277,156c-5.523,0-10-4.477-10-10c0-5.523,4.477-10,10-10
	c5.523,0,10,4.477,10,10C97.277,151.523,92.8,156,87.277,156z"/>
<g>
</g>
<g>
</g>
<g>
</g>
<g>
</g>
<g>
</g>
<g>
</g>
<g>
</g>
<g>
</g>
<g>
</g>
<g>
</g>
<g>
</g>
<g>
</g>
<g>
</g>
<g>
</g>
<g>
</g>
</svg>
